%TF.GenerationSoftware,KiCad,Pcbnew,(5.1.6)-1*%
%TF.CreationDate,2023-09-03T16:21:11+09:00*%
%TF.ProjectId,MCR-LED,4d43522d-4c45-4442-9e6b-696361645f70,rev?*%
%TF.SameCoordinates,Original*%
%TF.FileFunction,Copper,L2,Bot*%
%TF.FilePolarity,Positive*%
%FSLAX46Y46*%
G04 Gerber Fmt 4.6, Leading zero omitted, Abs format (unit mm)*
G04 Created by KiCad (PCBNEW (5.1.6)-1) date 2023-09-03 16:21:11*
%MOMM*%
%LPD*%
G01*
G04 APERTURE LIST*
%TA.AperFunction,ComponentPad*%
%ADD10C,1.800000*%
%TD*%
%TA.AperFunction,ComponentPad*%
%ADD11R,1.800000X1.800000*%
%TD*%
%TA.AperFunction,ComponentPad*%
%ADD12R,1.700000X1.700000*%
%TD*%
%TA.AperFunction,ComponentPad*%
%ADD13O,1.700000X1.700000*%
%TD*%
%TA.AperFunction,Conductor*%
%ADD14C,2.000000*%
%TD*%
G04 APERTURE END LIST*
D10*
%TO.P,D14,2*%
%TO.N,Net-(D10-Pad2)*%
X212540000Y-110000000D03*
D11*
%TO.P,D14,1*%
%TO.N,Net-(D14-Pad1)*%
X210000000Y-110000000D03*
%TD*%
%TO.P,D7,1*%
%TO.N,Net-(D1-Pad1)*%
X200000000Y-110000000D03*
D10*
%TO.P,D7,2*%
%TO.N,Net-(D14-Pad1)*%
X202540000Y-110000000D03*
%TD*%
%TO.P,D13,2*%
%TO.N,Net-(D10-Pad2)*%
X192540000Y-110000000D03*
D11*
%TO.P,D13,1*%
%TO.N,Net-(D13-Pad1)*%
X190000000Y-110000000D03*
%TD*%
%TO.P,D6,1*%
%TO.N,Net-(D1-Pad1)*%
X180000000Y-110000000D03*
D10*
%TO.P,D6,2*%
%TO.N,Net-(D13-Pad1)*%
X182540000Y-110000000D03*
%TD*%
%TO.P,D12,2*%
%TO.N,Net-(D10-Pad2)*%
X172540000Y-110000000D03*
D11*
%TO.P,D12,1*%
%TO.N,Net-(D12-Pad1)*%
X170000000Y-110000000D03*
%TD*%
%TO.P,D5,1*%
%TO.N,Net-(D1-Pad1)*%
X160000000Y-110000000D03*
D10*
%TO.P,D5,2*%
%TO.N,Net-(D12-Pad1)*%
X162540000Y-110000000D03*
%TD*%
%TO.P,D11,2*%
%TO.N,Net-(D10-Pad2)*%
X152540000Y-110000000D03*
D11*
%TO.P,D11,1*%
%TO.N,Net-(D11-Pad1)*%
X150000000Y-110000000D03*
%TD*%
D12*
%TO.P,J1,1*%
%TO.N,Net-(D10-Pad2)*%
X147500000Y-110000000D03*
D13*
%TO.P,J1,2*%
%TO.N,Net-(D1-Pad1)*%
X144960000Y-110000000D03*
%TD*%
D11*
%TO.P,D4,1*%
%TO.N,Net-(D1-Pad1)*%
X140000000Y-110000000D03*
D10*
%TO.P,D4,2*%
%TO.N,Net-(D11-Pad1)*%
X142540000Y-110000000D03*
%TD*%
%TO.P,D10,2*%
%TO.N,Net-(D10-Pad2)*%
X132540000Y-110000000D03*
D11*
%TO.P,D10,1*%
%TO.N,Net-(D10-Pad1)*%
X130000000Y-110000000D03*
%TD*%
%TO.P,D3,1*%
%TO.N,Net-(D1-Pad1)*%
X120000000Y-110000000D03*
D10*
%TO.P,D3,2*%
%TO.N,Net-(D10-Pad1)*%
X122540000Y-110000000D03*
%TD*%
%TO.P,D9,2*%
%TO.N,Net-(D10-Pad2)*%
X112540000Y-110000000D03*
D11*
%TO.P,D9,1*%
%TO.N,Net-(D2-Pad2)*%
X110000000Y-110000000D03*
%TD*%
%TO.P,D2,1*%
%TO.N,Net-(D1-Pad1)*%
X100000000Y-110000000D03*
D10*
%TO.P,D2,2*%
%TO.N,Net-(D2-Pad2)*%
X102540000Y-110000000D03*
%TD*%
%TO.P,D8,2*%
%TO.N,Net-(D10-Pad2)*%
X92540000Y-110000000D03*
D11*
%TO.P,D8,1*%
%TO.N,Net-(D1-Pad2)*%
X90000000Y-110000000D03*
%TD*%
%TO.P,D1,1*%
%TO.N,Net-(D1-Pad1)*%
X80000000Y-110000000D03*
D10*
%TO.P,D1,2*%
%TO.N,Net-(D1-Pad2)*%
X82540000Y-110000000D03*
%TD*%
D14*
%TO.N,Net-(D10-Pad2)*%
X151500000Y-114500000D02*
X152540000Y-113460000D01*
X148500000Y-114500000D02*
X151500000Y-114500000D01*
X152540000Y-113460000D02*
X152540000Y-110000000D01*
X147500000Y-110000000D02*
X147500000Y-113500000D01*
X147500000Y-113500000D02*
X148500000Y-114500000D01*
%TD*%
M02*
