M48
; DRILL file {KiCad (5.1.6)-1} date 09/03/23 16:21:21
; FORMAT={-:-/ absolute / metric / decimal}
; #@! TF.CreationDate,2023-09-03T16:21:21+09:00
; #@! TF.GenerationSoftware,Kicad,Pcbnew,(5.1.6)-1
; #@! TF.FileFunction,Plated,1,2,PTH
FMAT,2
METRIC
T1C0.900
T2C1.000
%
G90
G05
T1
X140.0Y-110.0
X142.54Y-110.0
X110.0Y-110.0
X112.54Y-110.0
X190.0Y-110.0
X192.54Y-110.0
X120.0Y-110.0
X122.54Y-110.0
X90.0Y-110.0
X92.54Y-110.0
X210.0Y-110.0
X212.54Y-110.0
X160.0Y-110.0
X162.54Y-110.0
X80.0Y-110.0
X82.54Y-110.0
X150.0Y-110.0
X152.54Y-110.0
X200.0Y-110.0
X202.54Y-110.0
X180.0Y-110.0
X182.54Y-110.0
X170.0Y-110.0
X172.54Y-110.0
X100.0Y-110.0
X102.54Y-110.0
X130.0Y-110.0
X132.54Y-110.0
T2
X144.96Y-110.0
X147.5Y-110.0
T0
M30
